<?xml version="1.0" encoding="UTF-8"?>
<svg xmlns="http://www.w3.org/2000/svg" xmlns:xlink="http://www.w3.org/1999/xlink" width="25px" height="25px" viewBox="0 0 25 25" version="1.1">
<g id="surface1">
<path style=" stroke:none;fill-rule:nonzero;fill:rgb(100%,80%,30.196078%);fill-opacity:1;" d="M 22.464844 9.722656 C 22.464844 9.722656 24.855469 3.601562 23.609375 1.390625 C 23.191406 0.644531 18.054688 2.777344 16.164062 5.167969 C 16.164062 5.167969 14.367188 4.570312 12.5 4.570312 C 10.632812 4.570312 8.835938 5.167969 8.835938 5.167969 C 6.945312 2.777344 1.808594 0.644531 1.390625 1.390625 C 0.144531 3.601562 2.535156 9.722656 2.535156 9.722656 C 1.914062 10.917969 1.679688 12.738281 1.457031 14.695312 C 1.210938 16.835938 1.699219 18.546875 1.914062 18.921875 C 2.15625 19.351562 3.386719 20.730469 5.027344 21.914062 C 7.519531 23.707031 11.253906 24.304688 12.5 24.304688 C 13.746094 24.304688 17.480469 23.707031 19.972656 21.914062 C 21.613281 20.730469 22.84375 19.351562 23.085938 18.921875 C 23.300781 18.546875 23.789062 16.835938 23.542969 14.695312 C 23.320312 12.738281 23.085938 10.917969 22.464844 9.722656 Z M 22.464844 9.722656 "/>
<path style=" stroke:none;fill-rule:nonzero;fill:rgb(94.509804%,56.078431%,14.901961%);fill-opacity:1;" d="M 1.636719 2.0625 C 1.777344 1.648438 5.351562 3.570312 6.164062 5.816406 C 6.164062 5.816406 3.519531 7.636719 3.019531 9.027344 C 3.019531 9.027344 0.945312 4.148438 1.636719 2.0625 Z M 1.636719 2.0625 "/>
<path style=" stroke:none;fill-rule:nonzero;fill:rgb(100%,80%,30.196078%);fill-opacity:1;" d="M 4.152344 5.042969 C 4.152344 4.058594 7.941406 6.941406 7.246094 7.632812 C 6.554688 8.328125 6.375 8.132812 5.683594 8.828125 C 4.988281 9.523438 4.152344 5.738281 4.152344 5.042969 Z M 4.152344 5.042969 "/>
<path style=" stroke:none;fill-rule:nonzero;fill:rgb(94.509804%,56.078431%,14.901961%);fill-opacity:1;" d="M 23.363281 2.0625 C 23.222656 1.648438 19.648438 3.570312 18.835938 5.816406 C 18.835938 5.816406 21.480469 7.636719 21.980469 9.027344 C 21.980469 9.027344 24.054688 4.148438 23.363281 2.0625 Z M 23.363281 2.0625 "/>
<path style=" stroke:none;fill-rule:nonzero;fill:rgb(100%,80%,30.196078%);fill-opacity:1;" d="M 20.847656 5.042969 C 20.847656 4.058594 17.058594 6.941406 17.753906 7.632812 C 18.445312 8.328125 18.625 8.132812 19.316406 8.828125 C 20.011719 9.523438 20.847656 5.738281 20.847656 5.042969 Z M 20.847656 5.042969 "/>
<path style=" stroke:none;fill-rule:nonzero;fill:rgb(16.078431%,18.431373%,20%);fill-opacity:1;" d="M 9.722656 13.890625 C 9.738281 14.394531 9.476562 14.871094 9.042969 15.128906 C 8.605469 15.386719 8.0625 15.386719 7.628906 15.128906 C 7.191406 14.871094 6.929688 14.394531 6.945312 13.890625 C 6.976562 13.144531 7.589844 12.554688 8.335938 12.554688 C 9.082031 12.554688 9.691406 13.144531 9.722656 13.890625 Z M 18.054688 13.890625 C 18.070312 14.394531 17.808594 14.871094 17.375 15.128906 C 16.9375 15.386719 16.394531 15.386719 15.960938 15.128906 C 15.523438 14.871094 15.261719 14.394531 15.277344 13.890625 C 15.300781 13.140625 15.917969 12.542969 16.667969 12.542969 C 17.417969 12.542969 18.03125 13.140625 18.054688 13.890625 Z M 18.054688 13.890625 "/>
<path style=" stroke:none;fill-rule:nonzero;fill:rgb(99.607843%,90.588235%,72.156863%);fill-opacity:1;" d="M 1.527344 21.152344 C 1.378906 21.152344 1.25 21.058594 1.199219 20.917969 C 1.152344 20.777344 1.199219 20.625 1.3125 20.53125 C 1.425781 20.445312 4.105469 18.367188 8.707031 18.722656 C 8.898438 18.738281 9.042969 18.902344 9.027344 19.09375 C 9.011719 19.285156 8.847656 19.441406 8.652344 19.414062 C 4.324219 19.085938 1.769531 21.058594 1.742188 21.078125 C 1.683594 21.125 1.605469 21.152344 1.527344 21.152344 Z M 7.6875 17.914062 C 7.652344 17.914062 7.617188 17.90625 7.582031 17.898438 C 4.257812 16.859375 1.515625 17.65625 1.488281 17.664062 C 1.304688 17.71875 1.109375 17.617188 1.054688 17.433594 C 1 17.25 1.105469 17.054688 1.289062 17 C 1.410156 16.964844 4.265625 16.132812 7.789062 17.234375 C 7.953125 17.285156 8.054688 17.449219 8.027344 17.617188 C 8.003906 17.789062 7.859375 17.914062 7.6875 17.914062 Z M 23.472656 21.152344 C 23.621094 21.152344 23.75 21.058594 23.800781 20.917969 C 23.847656 20.777344 23.800781 20.625 23.6875 20.53125 C 23.574219 20.445312 20.894531 18.367188 16.292969 18.722656 C 16.101562 18.738281 15.957031 18.902344 15.972656 19.09375 C 15.988281 19.285156 16.152344 19.441406 16.347656 19.414062 C 20.675781 19.085938 23.230469 21.058594 23.257812 21.078125 C 23.320312 21.125 23.398438 21.152344 23.472656 21.152344 Z M 17.3125 17.914062 C 17.347656 17.914062 17.382812 17.910156 17.417969 17.898438 C 20.742188 16.859375 23.484375 17.65625 23.511719 17.664062 C 23.695312 17.71875 23.890625 17.617188 23.945312 17.433594 C 24 17.25 23.894531 17.054688 23.710938 17 C 23.589844 16.964844 20.734375 16.132812 17.210938 17.234375 C 17.046875 17.285156 16.945312 17.449219 16.972656 17.617188 C 16.996094 17.789062 17.140625 17.914062 17.3125 17.914062 Z M 17.3125 17.914062 "/>
<path style=" stroke:none;fill-rule:nonzero;fill:rgb(40.392157%,45.882353%,49.803922%);fill-opacity:1;" d="M 17.179688 21.457031 C 17.109375 21.277344 16.910156 21.1875 16.730469 21.253906 C 16.347656 21.394531 15.984375 21.46875 15.648438 21.46875 C 14.847656 21.46875 14.566406 21.257812 14.238281 21.011719 C 13.921875 20.777344 13.574219 20.515625 12.855469 20.453125 L 12.855469 18.828125 C 12.855469 18.636719 12.699219 18.480469 12.507812 18.480469 C 12.316406 18.480469 12.160156 18.636719 12.160156 18.828125 L 12.160156 20.476562 C 11.597656 20.558594 11.226562 20.78125 10.898438 20.992188 C 10.503906 21.246094 10.164062 21.46875 9.453125 21.46875 C 9.117188 21.46875 8.753906 21.398438 8.371094 21.253906 C 8.195312 21.195312 8 21.285156 7.9375 21.460938 C 7.871094 21.636719 7.957031 21.832031 8.128906 21.902344 C 8.589844 22.074219 9.035156 22.164062 9.453125 22.164062 C 10.367188 22.164062 10.851562 21.851562 11.277344 21.578125 C 11.640625 21.339844 11.957031 21.136719 12.558594 21.136719 C 13.25 21.140625 13.503906 21.328125 13.820312 21.566406 C 14.195312 21.847656 14.617188 22.164062 15.648438 22.164062 C 16.066406 22.164062 16.511719 22.074219 16.972656 21.902344 C 17.058594 21.871094 17.128906 21.808594 17.167969 21.722656 C 17.207031 21.640625 17.210938 21.542969 17.179688 21.457031 Z M 17.179688 21.457031 "/>
<path style=" stroke:none;fill-rule:nonzero;fill:rgb(90.588235%,35.294118%,43.921569%);fill-opacity:1;" d="M 13.472656 17.226562 L 11.527344 17.226562 C 11.082031 17.226562 10.71875 17.589844 10.71875 18.035156 C 10.71875 18.476562 11.082031 18.84375 11.527344 18.84375 L 11.691406 18.84375 L 11.691406 19.082031 C 11.691406 19.527344 12.054688 19.890625 12.5 19.890625 C 12.945312 19.890625 13.308594 19.527344 13.308594 19.082031 L 13.308594 18.84375 L 13.472656 18.84375 C 13.914062 18.84375 14.28125 18.480469 14.28125 18.035156 C 14.28125 17.589844 13.914062 17.226562 13.472656 17.226562 Z M 13.472656 17.226562 "/>
<path style=" stroke:none;fill-rule:nonzero;fill:rgb(94.509804%,56.078431%,14.901961%);fill-opacity:1;" d="M 12.515625 11.914062 C 12.324219 11.914062 12.167969 11.757812 12.167969 11.566406 L 12.167969 5.8125 C 12.167969 5.621094 12.324219 5.464844 12.515625 5.464844 C 12.707031 5.464844 12.863281 5.621094 12.863281 5.8125 L 12.863281 11.566406 C 12.863281 11.757812 12.707031 11.914062 12.515625 11.914062 Z M 14.582031 10.8125 C 14.390625 10.8125 14.234375 10.660156 14.234375 10.464844 C 14.234375 8.464844 15.089844 6.847656 15.128906 6.78125 C 15.21875 6.613281 15.429688 6.550781 15.597656 6.640625 C 15.765625 6.730469 15.828125 6.941406 15.742188 7.109375 C 15.730469 7.125 14.929688 8.644531 14.929688 10.464844 C 14.929688 10.660156 14.773438 10.8125 14.582031 10.8125 Z M 10.417969 10.8125 C 10.226562 10.8125 10.070312 10.660156 10.070312 10.464844 C 10.070312 8.644531 9.265625 7.125 9.257812 7.109375 C 9.183594 6.941406 9.25 6.746094 9.410156 6.65625 C 9.574219 6.570312 9.773438 6.625 9.871094 6.78125 C 9.90625 6.847656 10.761719 8.464844 10.761719 10.464844 C 10.761719 10.558594 10.726562 10.648438 10.660156 10.710938 C 10.597656 10.777344 10.507812 10.8125 10.417969 10.8125 Z M 10.417969 10.8125 "/>
</g>
</svg>
