<?xml version="1.0" encoding="UTF-8"?>
<svg xmlns="http://www.w3.org/2000/svg" xmlns:xlink="http://www.w3.org/1999/xlink" width="29px" height="29px" viewBox="0 0 29 29" version="1.1">
<defs>
<filter id="alpha" filterUnits="objectBoundingBox" x="0%" y="0%" width="100%" height="100%">
  <feColorMatrix type="matrix" in="SourceGraphic" values="0 0 0 0 1 0 0 0 0 1 0 0 0 0 1 0 0 0 1 0"/>
</filter>
<mask id="mask0">
  <g filter="url(#alpha)">
<rect x="0" y="0" width="29" height="29" style="fill:rgb(0%,0%,0%);fill-opacity:0.6;stroke:none;"/>
  </g>
</mask>
<clipPath id="clip1">
  <rect x="0" y="0" width="29" height="29"/>
</clipPath>
<g id="surface5" clip-path="url(#clip1)">
<path style=" stroke:none;fill-rule:nonzero;fill:rgb(100%,100%,100%);fill-opacity:1;" d="M 14.605469 6.65625 L 14.605469 27.132812 C 14.570312 27.132812 14.535156 27.132812 14.5 27.132812 C 14.460938 27.132812 14.414062 27.132812 14.375 27.132812 C 13.398438 27.132812 12.628906 26.890625 11.953125 26.46875 C 11.875 26.488281 11.792969 26.507812 11.710938 26.519531 C 11.589844 26.539062 11.46875 26.550781 11.34375 26.550781 C 9.96875 26.550781 8.925781 25.890625 8.484375 24.789062 C 7.039062 24.257812 5.140625 23.648438 3.113281 23.222656 C 3.113281 23.222656 3.988281 22.699219 4.726562 22.660156 C 4.726562 22.660156 1.707031 20.257812 0 20.15625 C 0 20.15625 1.265625 19.535156 2.378906 19.535156 C 2.378906 19.535156 -1.226562 14.8125 1.929688 9.882812 C 1.9375 9.886719 1.9375 9.886719 1.941406 9.886719 C 1.941406 9.890625 1.945312 9.894531 1.949219 9.894531 C 2.078125 9.960938 2.992188 10.40625 4.277344 10.167969 C 4.035156 7.652344 4.234375 4.136719 6.660156 1.976562 C 7.582031 1.15625 10.25 5.09375 11.453125 6.992188 C 12.375 6.792969 13.339844 6.679688 14.339844 6.660156 L 14.339844 6.65625 L 14.347656 6.65625 C 14.398438 6.65625 14.449219 6.65625 14.5 6.65625 C 14.535156 6.65625 14.570312 6.65625 14.605469 6.65625 Z M 14.605469 6.65625 "/>
</g>
</defs>
<g id="surface1">
<path style=" stroke:none;fill-rule:nonzero;fill:rgb(100%,62.352941%,25.098039%);fill-opacity:1;" d="M 12.054688 7.964844 C 11.699219 8.539062 11.257812 9.070312 10.769531 9.550781 C 10.683594 9.636719 10.597656 9.71875 10.507812 9.800781 C 9.785156 10.472656 8.980469 11.046875 8.207031 11.519531 C 7.351562 12.050781 6.535156 12.453125 5.921875 12.730469 C 5.917969 12.730469 5.917969 12.730469 5.917969 12.730469 C 5.257812 13.03125 4.828125 13.179688 4.828125 13.179688 C 4.828125 13.179688 4.574219 12.335938 4.386719 11.074219 C 4.371094 10.964844 4.355469 10.847656 4.339844 10.730469 C 4.320312 10.550781 4.296875 10.363281 4.277344 10.167969 C 4.035156 7.652344 4.234375 4.136719 6.660156 1.976562 C 7.582031 1.15625 10.25 5.09375 11.453125 6.992188 C 11.824219 7.574219 12.054688 7.964844 12.054688 7.964844 Z M 12.054688 7.964844 "/>
<path style=" stroke:none;fill-rule:nonzero;fill:rgb(100%,79.215686%,54.117647%);fill-opacity:1;" d="M 11.460938 8.632812 C 11.460938 8.632812 8.328125 2.523438 7.359375 3.386719 C 4.050781 6.332031 5.640625 12.835938 5.640625 12.835938 C 5.640625 12.835938 9.761719 11.382812 11.460938 8.632812 Z M 11.460938 8.632812 "/>
<path style=" stroke:none;fill-rule:nonzero;fill:rgb(100%,62.352941%,25.098039%);fill-opacity:1;" d="M 17.066406 7.964844 C 17.066406 7.964844 21.253906 0.90625 22.457031 1.976562 C 26.566406 5.636719 24.289062 13.179688 24.289062 13.179688 C 24.289062 13.179688 19.171875 11.375 17.066406 7.964844 Z M 17.066406 7.964844 "/>
<path style=" stroke:none;fill-rule:nonzero;fill:rgb(100%,79.215686%,54.117647%);fill-opacity:1;" d="M 17.660156 8.632812 C 17.660156 8.632812 20.789062 2.523438 21.757812 3.386719 C 25.066406 6.332031 23.476562 12.835938 23.476562 12.835938 C 23.476562 12.835938 19.355469 11.382812 17.660156 8.632812 Z M 17.660156 8.632812 "/>
<path style=" stroke:none;fill-rule:nonzero;fill:rgb(100%,79.215686%,54.117647%);fill-opacity:1;" d="M 11.15625 25.875 C 11.15625 25.875 10.109375 25.382812 8.484375 24.789062 C 7.039062 24.257812 5.140625 23.648438 3.113281 23.222656 C 3.113281 23.222656 3.988281 22.699219 4.726562 22.660156 C 4.726562 22.660156 1.707031 20.257812 0 20.15625 C 0 20.15625 1.265625 19.535156 2.378906 19.535156 C 2.378906 19.535156 -1.226562 14.8125 1.929688 9.882812 C 1.9375 9.886719 1.9375 9.886719 1.941406 9.886719 C 1.941406 9.890625 1.945312 9.894531 1.949219 9.894531 C 2.078125 9.960938 2.992188 10.40625 4.277344 10.167969 C 4.589844 10.113281 4.921875 10.015625 5.269531 9.859375 C 5.585938 9.722656 5.914062 9.535156 6.253906 9.292969 C 6.265625 9.28125 6.28125 9.273438 6.296875 9.265625 C 6.308594 9.253906 6.320312 9.242188 6.335938 9.234375 C 6.816406 8.929688 7.300781 9.429688 7.765625 10.425781 C 7.914062 10.746094 8.0625 11.113281 8.207031 11.519531 C 8.214844 11.542969 8.222656 11.5625 8.230469 11.582031 C 8.515625 12.398438 8.792969 13.371094 9.054688 14.421875 C 9.09375 14.578125 9.132812 14.742188 9.171875 14.902344 C 9.222656 15.117188 9.273438 15.335938 9.320312 15.554688 C 9.335938 15.601562 9.34375 15.652344 9.355469 15.699219 C 9.410156 15.945312 9.46875 16.195312 9.519531 16.445312 C 9.652344 17.042969 9.773438 17.648438 9.890625 18.25 C 9.902344 18.304688 9.910156 18.355469 9.921875 18.40625 C 9.941406 18.511719 9.960938 18.617188 9.984375 18.722656 C 10.09375 19.300781 10.195312 19.871094 10.292969 20.421875 C 10.816406 23.386719 11.144531 25.796875 11.15625 25.875 Z M 11.15625 25.875 "/>
<path style=" stroke:none;fill-rule:nonzero;fill:rgb(100%,79.215686%,54.117647%);fill-opacity:1;" d="M 14.660156 6.65625 L 14.660156 6.660156 L 14.632812 11.78125 L 14.632812 11.792969 L 14.605469 17.507812 L 14.597656 19.457031 L 14.585938 21.089844 L 14.585938 21.144531 L 14.582031 22.050781 L 14.574219 23.824219 L 14.570312 23.972656 L 14.554688 27.132812 C 14.535156 27.132812 14.519531 27.132812 14.5 27.132812 C 14.460938 27.132812 14.414062 27.132812 14.375 27.132812 C 13.398438 27.132812 12.628906 26.890625 11.953125 26.46875 C 11.738281 26.332031 11.53125 26.179688 11.328125 26.011719 C 11.277344 25.964844 11.21875 25.921875 11.15625 25.875 C 10.507812 25.390625 9.378906 24.800781 8.328125 24.265625 C 7.257812 23.726562 6.265625 23.238281 5.917969 22.964844 C 5.917969 22.964844 5.917969 22.964844 5.917969 22.960938 L 5.914062 22.960938 C 5.910156 22.957031 5.882812 22.9375 5.839844 22.90625 C 5.496094 22.632812 5.125 22.363281 4.726562 22.101562 C 2.800781 20.839844 2.515625 18.152344 2.515625 16.125 C 2.515625 15.144531 2.707031 14.199219 3.0625 13.308594 C 3.195312 12.984375 3.34375 12.664062 3.519531 12.355469 C 3.636719 12.140625 3.769531 11.925781 3.910156 11.71875 C 4.058594 11.496094 4.214844 11.28125 4.390625 11.074219 C 4.410156 11.042969 4.4375 11.011719 4.464844 10.980469 C 4.527344 10.902344 4.59375 10.828125 4.664062 10.75 C 4.855469 10.53125 5.0625 10.316406 5.277344 10.113281 C 5.582031 9.824219 5.910156 9.550781 6.253906 9.296875 C 6.265625 9.28125 6.28125 9.273438 6.296875 9.265625 C 6.308594 9.253906 6.320312 9.242188 6.335938 9.234375 C 6.933594 8.792969 7.585938 8.398438 8.292969 8.0625 C 8.335938 8.042969 8.378906 8.019531 8.425781 8 C 8.621094 7.910156 8.816406 7.820312 9.015625 7.738281 L 9.019531 7.738281 C 9.140625 7.6875 9.261719 7.640625 9.386719 7.59375 C 9.464844 7.566406 9.539062 7.535156 9.617188 7.507812 C 9.761719 7.457031 9.90625 7.410156 10.054688 7.363281 C 10.15625 7.328125 10.253906 7.296875 10.359375 7.269531 C 10.460938 7.238281 10.566406 7.207031 10.667969 7.183594 C 10.925781 7.109375 11.1875 7.046875 11.453125 6.992188 C 12.375 6.792969 13.339844 6.679688 14.339844 6.660156 C 14.394531 6.65625 14.445312 6.65625 14.5 6.65625 C 14.535156 6.65625 14.570312 6.65625 14.605469 6.65625 Z M 14.660156 6.65625 "/>
<path style=" stroke:none;fill-rule:nonzero;fill:rgb(100%,79.215686%,54.117647%);fill-opacity:1;" d="M 17.84375 25.875 C 17.84375 25.875 21.585938 24.121094 25.886719 23.222656 C 25.886719 23.222656 25.011719 22.699219 24.273438 22.660156 C 24.273438 22.660156 27.292969 20.257812 29 20.152344 C 29 20.152344 27.734375 19.535156 26.621094 19.535156 C 26.621094 19.535156 30.226562 14.8125 27.070312 9.882812 C 27.070312 9.882812 25.09375 11.003906 22.707031 9.261719 C 20.320312 7.519531 17.84375 25.875 17.84375 25.875 Z M 17.84375 25.875 "/>
<path style=" stroke:none;fill-rule:nonzero;fill:rgb(100%,79.215686%,54.117647%);fill-opacity:1;" d="M 26.484375 16.125 C 26.484375 18.152344 26.199219 20.839844 24.277344 22.101562 C 23.875 22.363281 23.503906 22.632812 23.160156 22.90625 C 23.117188 22.9375 23.089844 22.957031 23.085938 22.960938 L 23.082031 22.960938 C 23.082031 22.964844 23.082031 22.964844 23.082031 22.964844 C 22.761719 23.214844 21.882812 23.65625 20.90625 24.148438 C 19.789062 24.714844 18.542969 25.355469 17.84375 25.875 C 17.785156 25.921875 17.722656 25.964844 17.671875 26.011719 C 17.492188 26.164062 17.304688 26.300781 17.113281 26.425781 C 16.421875 26.871094 15.636719 27.132812 14.628906 27.132812 L 14.605469 27.132812 C 14.570312 27.132812 14.535156 27.132812 14.5 27.132812 C 14.484375 27.132812 14.464844 27.132812 14.445312 27.132812 L 14.429688 24.265625 L 14.417969 21.976562 L 14.414062 20.890625 L 14.40625 19.457031 L 14.363281 11.066406 L 14.339844 6.660156 L 14.339844 6.65625 L 14.347656 6.65625 C 14.398438 6.65625 14.449219 6.65625 14.5 6.65625 C 14.535156 6.65625 14.570312 6.65625 14.605469 6.660156 C 14.625 6.660156 14.640625 6.660156 14.660156 6.660156 C 15.695312 6.679688 16.699219 6.800781 17.652344 7.015625 C 17.917969 7.070312 18.175781 7.136719 18.433594 7.207031 C 18.503906 7.226562 18.574219 7.25 18.644531 7.269531 C 18.746094 7.296875 18.847656 7.328125 18.945312 7.363281 C 19.09375 7.410156 19.242188 7.457031 19.382812 7.507812 C 19.460938 7.535156 19.535156 7.566406 19.613281 7.59375 C 19.738281 7.640625 19.859375 7.6875 19.984375 7.738281 C 20.183594 7.820312 20.382812 7.910156 20.574219 8 C 20.621094 8.019531 20.664062 8.042969 20.710938 8.0625 C 21.425781 8.40625 22.089844 8.804688 22.695312 9.257812 C 22.699219 9.257812 22.703125 9.257812 22.707031 9.261719 C 23.109375 9.5625 23.488281 9.878906 23.835938 10.222656 C 24.011719 10.394531 24.179688 10.570312 24.34375 10.753906 C 24.410156 10.828125 24.472656 10.90625 24.539062 10.980469 C 24.597656 11.050781 24.65625 11.125 24.710938 11.199219 C 24.847656 11.367188 24.972656 11.539062 25.089844 11.71875 C 25.234375 11.925781 25.363281 12.140625 25.480469 12.355469 C 25.65625 12.664062 25.808594 12.984375 25.9375 13.308594 C 26.292969 14.199219 26.484375 15.144531 26.484375 16.125 Z M 26.484375 16.125 "/>
<path style=" stroke:none;fill-rule:nonzero;fill:rgb(1.960784%,1.568627%,1.176471%);fill-opacity:1;" d="M 18.992188 18.726562 C 18.261719 18.726562 17.414062 18.738281 17.015625 18.191406 C 16.753906 17.828125 16.800781 17.015625 16.800781 16.535156 C 16.800781 15.328125 17.785156 14.347656 18.992188 14.347656 C 19.664062 14.347656 20.46875 14.371094 20.871094 14.851562 C 21.191406 15.230469 21.179688 16 21.179688 16.535156 C 21.179688 17.742188 20.199219 18.726562 18.992188 18.726562 Z M 18.992188 18.726562 "/>
<path style=" stroke:none;fill-rule:nonzero;fill:rgb(47.45098%,85.882353%,57.647059%);fill-opacity:1;" d="M 20.871094 16.535156 C 20.871094 17.574219 20.03125 18.414062 18.992188 18.414062 C 17.953125 18.414062 17.113281 17.574219 17.113281 16.535156 C 17.113281 15.496094 17.953125 14.65625 18.992188 14.65625 C 20.03125 14.65625 20.871094 15.496094 20.871094 16.535156 Z M 20.871094 16.535156 "/>
<path style=" stroke:none;fill-rule:nonzero;fill:rgb(1.960784%,1.568627%,1.176471%);fill-opacity:1;" d="M 16.433594 19.886719 C 16.433594 19.886719 15.929688 20.082031 15.96875 19.519531 C 16.007812 18.957031 15.832031 16.292969 17.789062 14.707031 L 17.789062 14.851562 C 17.789062 14.851562 16.375 16.03125 16.433594 19.886719 Z M 16.433594 19.886719 "/>
<path style=" stroke:none;fill-rule:nonzero;fill:rgb(1.960784%,1.568627%,1.176471%);fill-opacity:1;" d="M 20.070312 16.535156 C 20.070312 17.574219 19.050781 18.414062 18.992188 18.414062 C 18.9375 18.417969 17.914062 17.574219 17.914062 16.535156 C 17.914062 15.496094 18.992188 14.65625 18.992188 14.65625 C 19.058594 14.746094 20.070312 15.496094 20.070312 16.535156 Z M 20.070312 16.535156 "/>
<path style=" stroke:none;fill-rule:nonzero;fill:rgb(100%,100%,100%);fill-opacity:1;" d="M 19.964844 16.054688 C 19.964844 16.269531 19.789062 16.445312 19.574219 16.445312 C 19.359375 16.445312 19.183594 16.269531 19.183594 16.054688 C 19.183594 15.839844 19.359375 15.664062 19.574219 15.664062 C 19.789062 15.664062 19.964844 15.839844 19.964844 16.054688 Z M 19.964844 16.054688 "/>
<path style=" stroke:none;fill-rule:nonzero;fill:rgb(100%,100%,100%);fill-opacity:1;" d="M 18.589844 16.839844 C 18.589844 17.007812 18.453125 17.144531 18.285156 17.144531 C 18.117188 17.144531 17.980469 17.007812 17.980469 16.839844 C 17.980469 16.671875 18.117188 16.535156 18.285156 16.535156 C 18.453125 16.535156 18.589844 16.671875 18.589844 16.839844 Z M 18.589844 16.839844 "/>
<path style=" stroke:none;fill-rule:nonzero;fill:rgb(1.960784%,1.568627%,1.176471%);fill-opacity:1;" d="M 10.101562 18.726562 C 10.832031 18.726562 11.679688 18.738281 12.078125 18.191406 C 12.339844 17.828125 12.292969 17.015625 12.292969 16.535156 C 12.292969 15.328125 11.308594 14.347656 10.101562 14.347656 C 9.429688 14.347656 8.625 14.371094 8.222656 14.851562 C 7.902344 15.230469 7.914062 16 7.914062 16.535156 C 7.914062 17.742188 8.894531 18.726562 10.101562 18.726562 Z M 10.101562 18.726562 "/>
<path style=" stroke:none;fill-rule:nonzero;fill:rgb(47.45098%,85.882353%,57.647059%);fill-opacity:1;" d="M 11.980469 16.535156 C 11.980469 17.574219 11.140625 18.414062 10.101562 18.414062 C 9.066406 18.414062 8.222656 17.574219 8.222656 16.535156 C 8.222656 15.496094 9.066406 14.65625 10.101562 14.65625 C 11.140625 14.65625 11.980469 15.496094 11.980469 16.535156 Z M 11.980469 16.535156 "/>
<path style=" stroke:none;fill-rule:nonzero;fill:rgb(1.960784%,1.568627%,1.176471%);fill-opacity:1;" d="M 12.660156 19.886719 C 12.660156 19.886719 13.164062 20.082031 13.125 19.519531 C 13.085938 18.957031 13.261719 16.292969 11.304688 14.707031 L 11.304688 14.851562 C 11.304688 14.851562 12.71875 16.03125 12.660156 19.886719 Z M 12.660156 19.886719 "/>
<path style=" stroke:none;fill-rule:nonzero;fill:rgb(1.960784%,1.568627%,1.176471%);fill-opacity:1;" d="M 9.023438 16.535156 C 9.023438 17.574219 10.042969 18.414062 10.101562 18.414062 C 10.15625 18.417969 11.179688 17.574219 11.179688 16.535156 C 11.179688 15.496094 10.101562 14.65625 10.101562 14.65625 C 10.039062 14.746094 9.023438 15.496094 9.023438 16.535156 Z M 9.023438 16.535156 "/>
<path style=" stroke:none;fill-rule:nonzero;fill:rgb(100%,100%,100%);fill-opacity:1;" d="M 9.910156 16.054688 C 9.910156 16.269531 9.734375 16.445312 9.519531 16.445312 C 9.304688 16.445312 9.128906 16.269531 9.128906 16.054688 C 9.128906 15.839844 9.304688 15.664062 9.519531 15.664062 C 9.734375 15.664062 9.910156 15.839844 9.910156 16.054688 Z M 9.910156 16.054688 "/>
<path style=" stroke:none;fill-rule:nonzero;fill:rgb(100%,100%,100%);fill-opacity:1;" d="M 11.113281 16.839844 C 11.113281 17.007812 10.976562 17.144531 10.808594 17.144531 C 10.640625 17.144531 10.503906 17.007812 10.503906 16.839844 C 10.503906 16.671875 10.640625 16.535156 10.808594 16.535156 C 10.976562 16.535156 11.113281 16.671875 11.113281 16.839844 Z M 11.113281 16.839844 "/>
<path style=" stroke:none;fill-rule:nonzero;fill:rgb(100%,100%,100%);fill-opacity:1;" d="M 15.039062 20.773438 C 15.179688 20.695312 15.335938 20.632812 15.511719 20.585938 C 15.519531 20.582031 15.53125 20.578125 15.539062 20.578125 C 15.578125 20.566406 15.617188 20.554688 15.660156 20.546875 C 15.667969 20.546875 15.671875 20.542969 15.683594 20.542969 C 16.027344 20.46875 16.417969 20.445312 16.835938 20.445312 C 18.015625 20.445312 19.003906 21.265625 19.257812 22.367188 C 19.296875 22.550781 19.320312 22.738281 19.320312 22.929688 C 19.320312 24.304688 18.398438 25.191406 17.023438 25.191406 C 16.933594 25.191406 16.84375 25.183594 16.753906 25.167969 C 15.789062 25.011719 14.898438 24.050781 14.53125 23.035156 L 14.53125 21.277344 C 14.648438 21.058594 14.824219 20.894531 15.039062 20.773438 Z M 15.039062 20.773438 "/>
<path style=" stroke:none;fill-rule:nonzero;fill:rgb(100%,100%,100%);fill-opacity:1;" d="M 14.679688 21.277344 L 14.679688 23.035156 C 14.65625 23.097656 14.632812 23.164062 14.605469 23.222656 C 14.597656 23.242188 14.589844 23.261719 14.578125 23.277344 C 14.550781 23.351562 14.511719 23.425781 14.476562 23.496094 C 14.070312 24.265625 13.386719 24.929688 12.636719 25.128906 C 12.578125 25.144531 12.515625 25.15625 12.457031 25.167969 C 12.367188 25.183594 12.277344 25.191406 12.1875 25.191406 C 11.164062 25.191406 10.390625 24.699219 10.0625 23.882812 C 10.011719 23.761719 9.972656 23.632812 9.945312 23.496094 C 9.910156 23.320312 9.890625 23.128906 9.890625 22.929688 C 9.890625 22.738281 9.910156 22.550781 9.953125 22.371094 C 10.132812 21.589844 10.683594 20.949219 11.40625 20.644531 C 11.703125 20.515625 12.03125 20.445312 12.375 20.445312 C 12.628906 20.445312 12.878906 20.457031 13.109375 20.480469 C 13.253906 20.496094 13.394531 20.515625 13.527344 20.542969 C 13.535156 20.546875 13.542969 20.546875 13.550781 20.546875 C 13.59375 20.554688 13.632812 20.566406 13.667969 20.578125 C 13.679688 20.578125 13.691406 20.582031 13.699219 20.585938 C 13.875 20.632812 14.03125 20.695312 14.171875 20.773438 C 14.28125 20.835938 14.378906 20.90625 14.460938 20.992188 C 14.511719 21.035156 14.550781 21.085938 14.589844 21.140625 C 14.597656 21.144531 14.601562 21.152344 14.605469 21.160156 C 14.632812 21.195312 14.65625 21.238281 14.679688 21.277344 Z M 14.679688 21.277344 "/>
<path style=" stroke:none;fill-rule:nonzero;fill:rgb(100%,62.352941%,25.098039%);fill-opacity:1;" d="M 14.660156 6.65625 L 14.660156 6.660156 L 14.632812 11.78125 L 14.632812 11.792969 C 14.632812 11.789062 14.632812 11.789062 14.632812 11.785156 C 14.632812 11.785156 14.632812 11.78125 14.632812 11.78125 C 14.625 11.753906 14.617188 11.722656 14.605469 11.691406 C 14.558594 11.539062 14.480469 11.316406 14.363281 11.066406 C 14.015625 10.359375 13.328125 9.464844 12.050781 9.535156 C 11.65625 9.558594 11.136719 9.65625 10.542969 9.792969 C 10.53125 9.796875 10.519531 9.796875 10.507812 9.800781 C 9.699219 9.988281 8.753906 10.230469 7.765625 10.425781 C 6.957031 10.585938 6.121094 10.714844 5.320312 10.746094 C 5.097656 10.757812 4.878906 10.757812 4.664062 10.75 C 4.554688 10.746094 4.449219 10.742188 4.339844 10.730469 C 3.425781 10.664062 2.59375 10.421875 1.949219 9.894531 C 2.078125 9.960938 2.992188 10.40625 4.277344 10.167969 C 4.589844 10.113281 4.921875 10.015625 5.269531 9.859375 C 5.585938 9.722656 5.914062 9.535156 6.253906 9.296875 C 6.265625 9.28125 6.28125 9.273438 6.296875 9.265625 C 6.308594 9.253906 6.320312 9.242188 6.335938 9.234375 C 6.933594 8.792969 7.585938 8.398438 8.292969 8.0625 C 8.335938 8.042969 8.382812 8.019531 8.425781 8 C 8.621094 7.910156 8.816406 7.820312 9.015625 7.738281 L 9.019531 7.738281 C 9.140625 7.6875 9.261719 7.640625 9.390625 7.59375 C 9.464844 7.566406 9.539062 7.535156 9.617188 7.507812 C 9.761719 7.457031 9.90625 7.410156 10.054688 7.363281 C 10.15625 7.328125 10.253906 7.296875 10.359375 7.269531 C 10.460938 7.238281 10.566406 7.207031 10.667969 7.183594 C 10.925781 7.109375 11.1875 7.046875 11.453125 6.992188 C 12.375 6.792969 13.34375 6.679688 14.339844 6.660156 C 14.394531 6.65625 14.449219 6.65625 14.5 6.65625 C 14.535156 6.65625 14.570312 6.65625 14.605469 6.65625 Z M 14.660156 6.65625 "/>
<path style=" stroke:none;fill-rule:nonzero;fill:rgb(100%,62.352941%,25.098039%);fill-opacity:1;" d="M 14.609375 6.65625 L 14.605469 6.65625 L 14.632812 11.792969 C 14.757812 11.320312 15.386719 9.433594 17.214844 9.535156 C 18.152344 9.585938 19.769531 10.082031 21.5 10.425781 C 22.535156 10.632812 23.609375 10.78125 24.601562 10.75 C 25.648438 10.714844 26.347656 10.472656 27.070312 9.882812 C 26.9375 9.953125 25.21875 10.863281 23.015625 9.292969 C 23 9.28125 22.984375 9.269531 22.96875 9.261719 C 22.359375 8.808594 21.695312 8.40625 20.976562 8.0625 C 20.929688 8.042969 20.886719 8.019531 20.839844 8 C 20.648438 7.910156 20.449219 7.820312 20.25 7.738281 C 20.125 7.6875 20.003906 7.640625 19.878906 7.59375 C 19.800781 7.566406 19.726562 7.535156 19.648438 7.507812 C 19.503906 7.457031 19.359375 7.40625 19.210938 7.359375 C 19.113281 7.328125 19.011719 7.296875 18.910156 7.269531 C 17.574219 6.871094 16.125 6.65625 14.609375 6.65625 Z M 14.609375 6.65625 "/>
<path style=" stroke:none;fill-rule:nonzero;fill:rgb(1.960784%,1.568627%,1.176471%);fill-opacity:1;" d="M 16.578125 19.921875 C 16.5625 19.878906 16.535156 19.839844 16.503906 19.800781 C 16.453125 19.734375 16.386719 19.675781 16.308594 19.625 C 16.238281 19.578125 16.160156 19.535156 16.074219 19.507812 C 15.980469 19.476562 15.878906 19.457031 15.777344 19.457031 L 13.433594 19.457031 C 13.328125 19.457031 13.230469 19.476562 13.136719 19.507812 C 13.050781 19.535156 12.96875 19.578125 12.902344 19.625 C 12.824219 19.675781 12.757812 19.734375 12.707031 19.800781 C 12.675781 19.839844 12.648438 19.878906 12.628906 19.921875 C 12.535156 20.109375 12.5625 20.308594 12.789062 20.4375 C 12.796875 20.441406 12.800781 20.445312 12.808594 20.449219 C 12.871094 20.480469 12.945312 20.507812 13.023438 20.527344 C 13.054688 20.535156 13.085938 20.542969 13.113281 20.550781 C 13.378906 20.613281 13.679688 20.671875 13.820312 20.871094 C 13.851562 20.914062 13.878906 20.964844 13.890625 21.023438 C 14.046875 21.671875 14.300781 21.929688 14.484375 22.011719 C 14.519531 22.03125 14.550781 22.039062 14.578125 22.046875 L 14.578125 22.050781 L 14.582031 22.050781 C 14.582031 22.050781 14.589844 22.050781 14.589844 22.050781 C 14.59375 22.050781 14.601562 22.050781 14.605469 22.050781 C 14.609375 22.050781 14.613281 22.050781 14.617188 22.050781 C 14.621094 22.050781 14.628906 22.050781 14.628906 22.050781 L 14.628906 22.046875 C 14.660156 22.039062 14.691406 22.03125 14.726562 22.011719 C 14.910156 21.929688 15.164062 21.671875 15.320312 21.023438 C 15.332031 20.964844 15.359375 20.914062 15.390625 20.871094 C 15.53125 20.671875 15.832031 20.613281 16.09375 20.550781 C 16.125 20.542969 16.15625 20.535156 16.183594 20.527344 C 16.265625 20.507812 16.339844 20.480469 16.398438 20.449219 L 16.402344 20.449219 C 16.40625 20.445312 16.414062 20.441406 16.421875 20.4375 C 16.648438 20.308594 16.675781 20.109375 16.578125 19.921875 Z M 16.578125 19.921875 "/>
<use xlink:href="#surface5" mask="url(#mask0)"/>
</g>
</svg>
