<?xml version="1.0" encoding="UTF-8"?>
<svg xmlns="http://www.w3.org/2000/svg" xmlns:xlink="http://www.w3.org/1999/xlink" width="25px" height="25px" viewBox="0 0 25 25" version="1.1">
<g id="surface1">
<path style=" stroke:none;fill-rule:nonzero;fill:rgb(74.901961%,21.176471%,1.176471%);fill-opacity:1;" d="M 22.140625 12.503906 C 22.140625 17.828125 17.828125 22.140625 12.503906 22.140625 C 7.179688 22.140625 2.867188 17.828125 2.867188 12.503906 C 2.867188 7.179688 7.179688 2.867188 12.503906 2.867188 C 17.828125 2.867188 22.140625 7.179688 22.140625 12.503906 Z M 22.140625 12.503906 "/>
<path style=" stroke:none;fill-rule:nonzero;fill:rgb(100%,100%,100%);fill-opacity:1;" d="M 11.203125 6.253906 L 13.804688 6.253906 L 13.285156 15.628906 L 11.722656 15.628906 Z M 11.203125 6.253906 "/>
<path style=" stroke:none;fill-rule:nonzero;fill:rgb(100%,100%,100%);fill-opacity:1;" d="M 13.804688 18.234375 C 13.804688 18.953125 13.222656 19.539062 12.503906 19.539062 C 11.785156 19.539062 11.203125 18.953125 11.203125 18.234375 C 11.203125 17.515625 11.785156 16.933594 12.503906 16.933594 C 13.222656 16.933594 13.804688 17.515625 13.804688 18.234375 Z M 13.804688 18.234375 "/>
</g>
</svg>
